# xmcd CD database file
#
# Track frame offsets:
#	182
#	15125
#	31700
#	44180
#	64307
#	81100
#	96017
#	114040
#	130560
#	140492
#	160812
#	173050
#	191690
#	207505
#
# Disc length: 2895 seconds
#
# Revision: 3
# Processed by: cddbd v1.5.2PL0 Copyright (c) Steve Scherf et al.
# Submitted via: CDex 1.51
#
DISCID=b00b4d0e
DTITLE=Champion Jack Dupree - From New Orleans To Chicago
DYEAR=1966
DGENRE=Blues
TTITLE0=Third Degree
TTITLE1=T.V. Mama
TTITLE2=He Knows The Rules
TTITLE3=Ain't It A Shame
TTITLE4=Ooh La-La
TTITLE5=(Going Down To) Big Leg Emma's
TTITLE6=Won't Be A Fool No More
TTITLE7=Take It Slow And Easy
TTITLE8=She's All In My Life
TTITLE9=Poor Poor Me
TTITLE10=Pigfoot And A Bottle Of Beer
TTITLE11=Down The Valley
TTITLE12=Too Early In The Morning
TTITLE13=Shim-Sham-Shimmy
EXTD=YEAR: 1966
EXTT0=
EXTT1=
EXTT2=
EXTT3=
EXTT4=
EXTT5=
EXTT6=
EXTT7=
EXTT8=
EXTT9=
EXTT10=
EXTT11=
EXTT12=
EXTT13=
PLAYORDER=
